Coordinates
version=1
nRows=14
nColumns=24
inDegrees=yes

Units are S.I. units (second, meters, Newtons, ...)
Angles are in degrees.

endheader
time	pelvis_tilt	pelvis_list	pelvis_rotation	pelvis_tx	pelvis_ty	pelvis_tz	hip_flexion_r	hip_adduction_r	hip_rotation_r	knee_angle_r	ankle_angle_r	subtalar_angle_r	mtp_angle_r	hip_flexion_l	hip_adduction_l	hip_rotation_l	knee_angle_l	ankle_angle_l	subtalar_angle_l	mtp_angle_l	lumbar_extension	lumbar_bending	lumbar_rotation
      0.98416667	     -0.88761860	     -0.79665167	     -2.02832131	     -0.06163058	      1.03488835	      0.26744861	    -12.98519368	      2.57867572	     -2.72448946	    -15.73169889	     20.96005633	      4.53487441	      7.76493143	     26.79547193	     -0.96093177	     -1.92750502	     -9.99465511	      7.41432364	      9.61073311	      4.97203923	    -17.01112674	      2.22539902	      3.70630620
      0.98833333	     -0.85836760	     -0.74370200	     -2.10507313	     -0.05552577	      1.03419544	      0.26717010	    -13.04546715	      2.42277480	     -2.78383998	    -16.42812914	     20.89965080	      4.76999623	      8.07090394	     26.90439539	     -0.84709446	     -1.76154117	    -10.87566014	      7.09318480	      9.37533014	      5.07899989	    -16.99217137	      2.08643809	      3.66216213
      0.99250000	     -0.83588215	     -0.68820060	     -2.17301971	     -0.04939261	      1.03353182	      0.26685968	    -13.08095500	      2.26146718	     -2.85522571	    -17.15991534	     20.79685540	      5.00901295	      8.41336101	     27.02598241	     -0.72833476	     -1.58685478	    -11.78854243	      6.76401382	      9.10718292	      5.18008345	    -16.95142909	      1.94533510	      3.61060916
      0.99666667	     -0.80586339	     -0.62725647	     -2.23813024	     -0.04324108	      1.03292441	      0.26653158	    -13.10218810	      2.08946484	     -2.94323691	    -17.93600736	     20.65914333	      5.26182874	      8.82107838	     27.14193073	     -0.60389081	     -1.40731998	    -12.72657987	      6.43456444	      8.81013859	      5.27762362	    -16.91895125	      1.79931422	      3.55730023
      1.00083333	     -0.73508077	     -0.56604748	     -2.28354078	     -0.03707073	      1.03243861	      0.26617920	    -13.17410888	      1.92517262	     -2.98784356	    -18.68193261	     20.34878016	      5.29202541	     12.95456861	     27.20807562	     -0.46935001	     -1.18665917	    -13.66344624	      6.09432906	      8.43944194	      6.08928017	    -16.94612400	      1.64958272	      3.49554189
      1.00500000	     -0.70379086	     -0.49916161	     -2.35263887	     -0.03089288	      1.03192407	      0.26583224	    -13.14820954	      1.73695805	     -3.07303637	    -19.54969887	     20.12786931	      5.55287809	     13.01002823	     27.33917182	     -0.35293004	     -1.09079378	    -14.66778433	      5.81420614	      8.25706493	      6.08083195	    -16.91366544	      1.49232835	      3.44930993
      1.00916667	     -0.66228531	     -0.42422917	     -2.40710631	     -0.02469715	      1.03147362	      0.26543671	    -13.11218972	      1.53541738	     -3.18788312	    -20.45651316	     19.87109414	      5.81738302	     13.12047537	     27.44513491	     -0.21542134	     -0.92735177	    -15.65130286	      5.54653803	      7.96137733	      6.06322915	    -16.89359855	      1.32882654	      3.38603751
      1.01333333	     -0.61801453	     -0.34345939	     -2.46031601	     -0.01848650	      1.03108302	      0.26501717	    -13.05346872	      1.32175605	     -3.30668257	    -21.40892961	     19.56131224	      6.07721402	     13.28193715	     27.53760030	     -0.07053188	     -0.75941608	    -16.62269165	      5.29413677	      7.63921257	      6.03502864	    -16.87685124	      1.15890881	      3.31908012
      1.01750000	     -0.55118513	     -0.25716934	     -2.49802612	     -0.01228612	      1.03078476	      0.26454557	    -12.99770192	      1.09891706	     -3.43684416	    -22.39036505	     19.15805184	      6.22007647	     16.26030361	     27.58779822	      0.09652709	     -0.52126517	    -17.56072886	      5.05515656	      7.20654883	      5.53320988	    -16.89098486	      0.99538291	      3.22338789
      1.02166667	     -0.48230203	     -0.16546522	     -2.55613330	     -0.00606809	      1.03052928	      0.26409733	    -12.90422570	      0.85370860	     -3.58448368	    -23.45236346	     18.78340810	      6.53061296	     16.33963561	     27.64387526	      0.24147557	     -0.44404233	    -18.52658407	      4.88491657	      7.01587004	      5.51254915	    -16.90650926	      0.81387074	      3.17627803
      1.02583333	     -0.40381588	     -0.06149869	     -2.60827927	      0.00015429	      1.03034938	      0.26361239	    -12.79677009	      0.58809760	     -3.74288473	    -24.55138401	     18.36155011	      6.82884010	     16.56452721	     27.66390206	      0.41243251	     -0.30477624	    -19.44663352	      4.73363963	      6.67757460	      5.45436891	    -16.92972156	      0.61701109	      3.10025207
      1.03000000	     -0.29905119	      0.05594377	     -2.66966931	      0.00635481	      1.03028683	      0.26310293	    -12.67867021	      0.29255553	     -3.90846034	    -25.71412814	     17.85327260	      7.13117104	     17.38198023	     27.61058952	      0.60614554	     -0.11471567	    -20.27449161	      4.61690511	      6.29104487	      5.24549923	    -16.99908430	      0.42481771	      3.00467268
      1.03416667	     -0.26434084	      0.15004033	     -2.71085638	      0.01258177	      1.03012623	      0.26259633	    -12.46336835	      0.03142848	     -4.07034352	    -26.91606868	     17.31623585	      7.36405517	     17.62226462	     27.66582114	      0.75466517	     -0.07571004	    -21.17469835	      4.54552186	      6.17863281	      5.18254879	    -16.95642145	      0.24189706	      2.95949331
      1.03833333	     -0.16362297	      0.27470319	     -2.76023120	      0.01878011	      1.03013476	      0.26206398	    -12.28313777	     -0.28474304	     -4.26233397	    -28.17402513	     16.73384594	      7.67183037	     17.94220618	     27.59755929	      0.94882108	      0.02015805	    -21.96802283	      4.50374745	      5.93472898	      5.09732321	    -17.00529951	      0.03135170	      2.88297982
